%TF.GenerationSoftware,KiCad,Pcbnew,(6.0.9)*%
%TF.CreationDate,2022-11-29T08:51:07+01:00*%
%TF.ProjectId,Diode_Board,44696f64-655f-4426-9f61-72642e6b6963,rev?*%
%TF.SameCoordinates,Original*%
%TF.FileFunction,Copper,L1,Top*%
%TF.FilePolarity,Positive*%
%FSLAX46Y46*%
G04 Gerber Fmt 4.6, Leading zero omitted, Abs format (unit mm)*
G04 Created by KiCad (PCBNEW (6.0.9)) date 2022-11-29 08:51:07*
%MOMM*%
%LPD*%
G01*
G04 APERTURE LIST*
G04 Aperture macros list*
%AMRoundRect*
0 Rectangle with rounded corners*
0 $1 Rounding radius*
0 $2 $3 $4 $5 $6 $7 $8 $9 X,Y pos of 4 corners*
0 Add a 4 corners polygon primitive as box body*
4,1,4,$2,$3,$4,$5,$6,$7,$8,$9,$2,$3,0*
0 Add four circle primitives for the rounded corners*
1,1,$1+$1,$2,$3*
1,1,$1+$1,$4,$5*
1,1,$1+$1,$6,$7*
1,1,$1+$1,$8,$9*
0 Add four rect primitives between the rounded corners*
20,1,$1+$1,$2,$3,$4,$5,0*
20,1,$1+$1,$4,$5,$6,$7,0*
20,1,$1+$1,$6,$7,$8,$9,0*
20,1,$1+$1,$8,$9,$2,$3,0*%
G04 Aperture macros list end*
%TA.AperFunction,ComponentPad*%
%ADD10R,1.700000X1.700000*%
%TD*%
%TA.AperFunction,ComponentPad*%
%ADD11O,1.700000X1.700000*%
%TD*%
%TA.AperFunction,SMDPad,CuDef*%
%ADD12RoundRect,0.150000X0.587500X0.150000X-0.587500X0.150000X-0.587500X-0.150000X0.587500X-0.150000X0*%
%TD*%
%TA.AperFunction,Conductor*%
%ADD13C,0.250000*%
%TD*%
G04 APERTURE END LIST*
D10*
%TO.P,J1,1,Pin_1*%
%TO.N,Net-(D1-Pad1)*%
X127000000Y-91440000D03*
D11*
%TO.P,J1,2,Pin_2*%
%TO.N,Net-(D1-Pad2)*%
X127000000Y-93980000D03*
%TO.P,J1,3,Pin_3*%
%TO.N,Net-(D1-Pad3)*%
X127000000Y-96520000D03*
%TO.P,J1,4,Pin_4*%
%TO.N,Net-(D2-Pad3)*%
X127000000Y-99060000D03*
%TD*%
D12*
%TO.P,D1,1*%
%TO.N,Net-(D1-Pad1)*%
X122857500Y-94930000D03*
%TO.P,D1,2*%
%TO.N,Net-(D1-Pad2)*%
X122857500Y-93030000D03*
%TO.P,D1,3*%
%TO.N,Net-(D1-Pad3)*%
X120982500Y-93980000D03*
%TD*%
%TO.P,D2,1*%
%TO.N,Net-(D1-Pad1)*%
X122857500Y-100010000D03*
%TO.P,D2,2*%
%TO.N,Net-(D1-Pad2)*%
X122857500Y-98110000D03*
%TO.P,D2,3*%
%TO.N,Net-(D2-Pad3)*%
X120982500Y-99060000D03*
%TD*%
D13*
%TO.N,Net-(D1-Pad2)*%
X125730000Y-92710000D02*
X127000000Y-93980000D01*
X123177500Y-92710000D02*
X125730000Y-92710000D01*
X122857500Y-93030000D02*
X123177500Y-92710000D01*
%TO.N,Net-(D1-Pad1)*%
X118110000Y-94615000D02*
X118110000Y-93980000D01*
X118425000Y-94930000D02*
X118110000Y-94615000D01*
X122857500Y-94930000D02*
X118425000Y-94930000D01*
X120650000Y-91440000D02*
X127000000Y-91440000D01*
X118110000Y-93980000D02*
X120650000Y-91440000D01*
X118110000Y-99690000D02*
X118110000Y-93980000D01*
X122857500Y-100010000D02*
X118430000Y-100010000D01*
X118430000Y-100010000D02*
X118110000Y-99690000D01*
%TO.N,Net-(D1-Pad2)*%
X129540000Y-101600000D02*
X129540000Y-93980000D01*
X126347500Y-101600000D02*
X129540000Y-101600000D01*
X122857500Y-98110000D02*
X126347500Y-101600000D01*
X129540000Y-93980000D02*
X127000000Y-93980000D01*
%TO.N,Net-(D1-Pad3)*%
X124460000Y-93980000D02*
X127000000Y-96520000D01*
X120982500Y-93980000D02*
X124460000Y-93980000D01*
%TO.N,Net-(D2-Pad3)*%
X124460000Y-96520000D02*
X127000000Y-99060000D01*
X119848750Y-96520000D02*
X124460000Y-96520000D01*
X118862187Y-97506563D02*
X119848750Y-96520000D01*
X120415625Y-99060000D02*
X118862187Y-97506563D01*
X120982500Y-99060000D02*
X120415625Y-99060000D01*
%TD*%
M02*
