M48
; DRILL file {KiCad (6.0.9)} date Tue Dec  6 11:09:56 2022
; FORMAT={-:-/ absolute / metric / decimal}
; #@! TF.CreationDate,2022-12-06T11:09:56+01:00
; #@! TF.GenerationSoftware,Kicad,Pcbnew,(6.0.9)
; #@! TF.FileFunction,Plated,1,2,PTH
FMAT,2
METRIC
; #@! TA.AperFunction,Plated,PTH,ComponentDrill
T1C1.000
; #@! TA.AperFunction,Plated,PTH,ComponentDrill
T2C1.300
%
G90
G05
T1
X144.526Y-83.312
X144.526Y-85.852
X144.526Y-88.392
X144.526Y-90.932
X144.526Y-93.472
X144.526Y-96.012
X144.526Y-98.552
X144.526Y-101.092
X144.526Y-103.632
X144.526Y-106.172
X146.05Y-57.15
X148.59Y-57.15
X151.13Y-57.15
X153.67Y-57.15
X156.21Y-57.15
X158.75Y-57.15
X159.766Y-83.312
X159.766Y-85.852
X159.766Y-88.392
X159.766Y-90.932
X159.766Y-93.472
X159.766Y-96.012
X159.766Y-98.552
X159.766Y-101.092
X159.766Y-103.632
X159.766Y-106.172
X162.56Y-67.31
X162.56Y-69.85
T2
X133.39Y-70.35
X133.39Y-102.37
X138.39Y-70.35
X138.39Y-102.37
T0
M30
